<mxfile host="app.diagrams.net" modified="2021-06-30T11:13:47.781Z" agent="5.0 (Windows)" etag="U4zuhHRTiHQxWGnaBdHC" version="14.8.2" type="github">
  <diagram id="emvLmbiRk_ffSJu8bNr_" name="Page-1">
    <mxGraphModel dx="782" dy="392" grid="1" gridSize="10" guides="1" tooltips="1" connect="1" arrows="1" fold="1" page="1" pageScale="1" pageWidth="827" pageHeight="1169" math="0" shadow="0">
      <root>
        <mxCell id="0" />
        <mxCell id="1" parent="0" />
        <mxCell id="sHFLUTxeXT9WXbvxL1Ar-1" value="12" style="rounded=0;whiteSpace=wrap;html=1;" vertex="1" parent="1">
          <mxGeometry x="320" y="160" width="40" height="40" as="geometry" />
        </mxCell>
        <mxCell id="sHFLUTxeXT9WXbvxL1Ar-2" value="&lt;font style=&quot;font-size: 15px&quot;&gt;14&lt;/font&gt;" style="ellipse;whiteSpace=wrap;html=1;aspect=fixed;" vertex="1" parent="1">
          <mxGeometry x="400" y="200" width="40" height="40" as="geometry" />
        </mxCell>
      </root>
    </mxGraphModel>
  </diagram>
</mxfile>
